<svg width="220" height="114" viewBox="0 0 220 114" fill="none" xmlns="http://www.w3.org/2000/svg">
<g clip-path="url(#clip0_1_2)">
<mask id="mask0_1_2" style="mask-type:luminance" maskUnits="userSpaceOnUse" x="0" y="0" width="220" height="114">
<path d="M220 0H0V114H220V0Z" fill="white"/>
</mask>
<g mask="url(#mask0_1_2)">
<path d="M220 89.142V89.7999C220 90.3222 219.795 90.813 219.435 91.1892L200.263 110.668C199.512 111.431 198.289 111.431 197.539 110.668L188.585 101.571L178.037 90.8547C177.287 90.0924 176.064 90.0924 175.313 90.8547L153.099 113.425C152.739 113.791 152.245 114 151.731 114H112.729C112.215 114 111.732 113.791 111.362 113.425C110.612 112.663 110.612 111.42 111.362 110.658L125.713 96.0771L132.21 89.4762L153.068 68.2842C153.818 67.5216 153.818 66.2787 153.068 65.5164L152.513 64.9524L132.22 44.3346L129.002 41.0655C127.789 39.8331 125.713 40.7103 125.713 42.4545V78.1647C125.713 79.9089 123.636 80.7861 122.423 79.5537L111.362 68.3154C110.612 67.5528 109.388 67.5528 108.638 68.3154L97.5767 79.5537C96.3636 80.7861 94.2871 79.9089 94.2871 78.1647V42.4545C94.2871 40.7103 92.2105 39.8331 90.9977 41.0655L87.78 44.3346L67.4875 64.9524L66.9323 65.5164C66.182 66.2787 66.182 67.5216 66.9323 68.2842L87.7904 89.4762L94.2871 96.0771L108.638 110.658C109.388 111.42 109.388 112.663 108.638 113.425C108.278 113.791 107.785 114 107.271 114H68.2688C67.7548 114 67.2716 113.791 66.9015 113.425L44.6867 90.8547C43.9363 90.0924 42.7129 90.0924 41.9625 90.8547L31.4155 101.571L22.4616 110.668C21.7111 111.431 20.4878 111.431 19.7374 110.668L0.565397 91.1892C0.205601 90.8235 0 90.3222 0 89.7999V89.142C0 88.6197 0.205601 88.1289 0.565397 87.7527L21.1252 66.8949L23.0372 64.9524L31.4359 56.4189L43.34 44.3241L62.8615 24.4899L65.5445 21.7639L71.2911 15.9254L86.4025 0.571842C87.1529 -0.190614 88.3763 -0.190614 89.1267 0.571842L94.277 5.80458L104.248 15.9358L108.638 20.3957C109.388 21.1581 110.612 21.1581 111.362 20.3957L115.752 15.9358L125.723 5.80458L130.873 0.571842C131.624 -0.190614 132.847 -0.190614 133.597 0.571842L148.709 15.9254L154.456 21.7639L157.139 24.4899L176.67 44.3139L188.574 56.4087L196.973 64.9419L198.885 66.8844L219.424 87.7527C219.795 88.1289 220 88.6197 220 89.142Z" fill="#40D3B7"/>
</g>
</g>
<defs>
<clipPath id="clip0_1_2">
<rect width="220" height="114" fill="white"/>
</clipPath>
</defs>
</svg>
